<?xml version="1.0" encoding="UTF-8"?>
<svg width="512" height="512" viewBox="0 0 512 512" fill="none" xmlns="http://www.w3.org/2000/svg">
    <!-- Background Circle -->
    <circle cx="256" cy="256" r="240" fill="#1a1f2c"/>
    <circle cx="256" cy="256" r="220" stroke="#DC2626" stroke-width="8" fill="none"/>
    
    <!-- Stamp-like Design -->
    <path d="M256 96
             A 160 160 0 1 0 256 416
             A 160 160 0 1 0 256 96
             M256 136
             A 120 120 0 1 1 256 376
             A 120 120 0 1 1 256 136Z" 
          fill="#DC2626" fill-opacity="0.9"/>
    
    <!-- Text Path -->
    <path id="textPath" 
          d="M256 96 A 160 160 0 1 1 256 416 A 160 160 0 1 1 256 96"
          fill="none"/>
    
    <!-- Circular Text -->
    <text>
        <textPath href="#textPath" startOffset="50%" text-anchor="middle"
                  fill="#ffffff" font-family="monospace" font-size="24px" letter-spacing="4">
            BUREAUCRACY • OFFICIAL • SEAL
        </textPath>
    </text>
    
    <!-- Central Star -->
    <path d="M256 176
             L276 236 L340 236 L288 276
             L308 336 L256 296 L204 336
             L224 276 L172 236 L236 236 Z"
          fill="#ffffff"/>
</svg>
